<svg width="75" height="66" viewBox="0 0 75 66" fill="none" xmlns="http://www.w3.org/2000/svg">
<path fill-rule="evenodd" clip-rule="evenodd" d="M14.9882 17.5C14.9882 10.0607 21.077 4 28.6251 4C36.1732 4 42.262 10.0607 42.262 17.5C42.262 24.9393 36.1732 31 28.6251 31C21.077 31 14.9882 24.9393 14.9882 17.5ZM28.6251 0C18.9011 0 10.9882 7.81847 10.9882 17.5C10.9882 27.1815 18.9011 35 28.6251 35C38.3491 35 46.262 27.1815 46.262 17.5C46.262 7.81847 38.3491 0 28.6251 0ZM4 64.0001C4 50.8066 14.978 40.0271 28.625 40.0271C42.2721 40.0271 53.2501 50.8066 53.2501 64.0001C53.2501 65.1046 54.1455 66.0001 55.2501 66.0001C56.3546 66.0001 57.2501 65.1046 57.2501 64.0001C57.2501 48.5046 44.3872 36.0271 28.625 36.0271C12.8629 36.0271 0 48.5046 0 64.0001C0 65.1046 0.89543 66.0001 2 66.0001C3.10457 66.0001 4 65.1046 4 64.0001ZM62.0117 15.2297C59.2848 15.2297 57.0584 17.4565 57.0584 20.2229C57.0584 22.9893 59.2848 25.2161 62.0117 25.2161C64.7387 25.2161 66.9651 22.9893 66.9651 20.2229C66.9651 17.4565 64.7387 15.2297 62.0117 15.2297ZM54.0584 20.2229C54.0584 15.8171 57.6105 12.2297 62.0117 12.2297C66.413 12.2297 69.9651 15.8171 69.9651 20.2229C69.9651 23.5973 67.8814 26.4917 64.9284 27.6619C70.4106 28.963 74.5 33.8505 74.5 39.7027C74.5 40.5311 73.8284 41.2027 73 41.2027C72.1715 41.2027 71.5 40.5311 71.5 39.7027C71.5 34.5358 67.2659 30.3221 62.0118 30.3221C56.7578 30.3221 52.5237 34.5358 52.5237 39.7027C52.5237 40.5311 51.8522 41.2027 51.0237 41.2027C50.1953 41.2027 49.5237 40.5311 49.5237 39.7027C49.5237 33.8505 53.6131 28.9631 59.0952 27.6619C56.1422 26.4918 54.0584 23.5974 54.0584 20.2229Z" fill="#5E80FF"/>
</svg>
