<svg width="67" height="68" viewBox="0 0 67 68" fill="none" xmlns="http://www.w3.org/2000/svg">
<path fill-rule="evenodd" clip-rule="evenodd" d="M4 33.625C4 17.2745 17.3348 4 33.8085 4C36.8473 4 39.7764 4.45129 42.5335 5.28868C43.5904 5.60969 44.7074 5.01313 45.0284 3.95623C45.3494 2.89934 44.7528 1.78233 43.6959 1.46132C40.566 0.510675 37.2454 0 33.8085 0C15.1475 0 0 15.0435 0 33.625C0 34.7296 0.89543 35.625 2 35.625C3.10457 35.625 4 34.7296 4 33.625ZM40.6537 40.4307C36.873 44.1895 30.7436 44.1895 26.9628 40.4307C23.1823 36.6719 23.1823 30.5778 26.9628 26.819C30.7436 23.0602 57.3188 7.49994 58.7018 8.87494C60.0847 10.2499 44.4343 36.6719 40.6537 40.4307ZM36.5742 33.6251C36.5742 35.1439 35.3356 36.3751 33.808 36.3751C32.2805 36.3751 31.0422 35.1439 31.0422 33.6251C31.0422 32.1063 32.2805 30.8751 33.808 30.8751C35.3356 30.8751 36.5742 32.1063 36.5742 33.6251ZM8.91497 50.125C8.91497 51.6438 7.67661 52.875 6.14901 52.875C4.62142 52.875 3.38306 51.6438 3.38306 50.125C3.38306 48.6062 4.62142 47.375 6.14901 47.375C7.67661 47.375 8.91497 48.6062 8.91497 50.125ZM17.2127 63.875C18.7403 63.875 19.9787 62.6438 19.9787 61.125C19.9787 59.6062 18.7403 58.375 17.2127 58.375C15.6851 58.375 14.4468 59.6062 14.4468 61.125C14.4468 62.6438 15.6851 63.875 17.2127 63.875ZM36.5744 65.25C36.5744 66.7688 35.336 68 33.8084 68C32.2808 68 31.0425 66.7688 31.0425 65.25C31.0425 63.7312 32.2808 62.5 33.8084 62.5C35.336 62.5 36.5744 63.7312 36.5744 65.25ZM50.4041 63.875C51.9317 63.875 53.1701 62.6438 53.1701 61.125C53.1701 59.6062 51.9317 58.375 50.4041 58.375C48.8765 58.375 47.6382 59.6062 47.6382 61.125C47.6382 62.6438 48.8765 63.875 50.4041 63.875ZM62.851 50.125C62.851 51.6438 61.6126 52.875 60.085 52.875C58.5575 52.875 57.3191 51.6438 57.3191 50.125C57.3191 48.6062 58.5575 47.375 60.085 47.375C61.6126 47.375 62.851 48.6062 62.851 50.125ZM64.234 36.375C65.7616 36.375 66.9999 35.1438 66.9999 33.625C66.9999 32.1062 65.7616 30.875 64.234 30.875C62.7064 30.875 61.468 32.1062 61.468 33.625C61.468 35.1438 62.7064 36.375 64.234 36.375Z" fill="white"/>
</svg>
